<?xml version="1.0" encoding="UTF-8" standalone="no"?>
<!-- Created with Inkscape (http://www.inkscape.org/) -->
<svg
   xmlns:dc="http://purl.org/dc/elements/1.1/"
   xmlns:cc="http://creativecommons.org/ns#"
   xmlns:rdf="http://www.w3.org/1999/02/22-rdf-syntax-ns#"
   xmlns:svg="http://www.w3.org/2000/svg"
   xmlns="http://www.w3.org/2000/svg"
   xmlns:xlink="http://www.w3.org/1999/xlink"
   xmlns:sodipodi="http://sodipodi.sourceforge.net/DTD/sodipodi-0.dtd"
   xmlns:inkscape="http://www.inkscape.org/namespaces/inkscape"
   width="64px"
   height="64px"
   id="svg2383"
   sodipodi:version="0.32"
   inkscape:version="0.46"
   sodipodi:docname="icon.svg"
   inkscape:output_extension="org.inkscape.output.svg.inkscape">
  <defs
     id="defs2385">
    <linearGradient
       id="linearGradient5620">
      <stop
         style="stop-color:#000000;stop-opacity:0.48333332;"
         offset="0"
         id="stop5622" />
      <stop
         style="stop-color:#ffffff;stop-opacity:1;"
         offset="1"
         id="stop5624" />
    </linearGradient>
    <marker
       inkscape:stockid="EmptyDiamondSend"
       orient="auto"
       refY="0.0"
       refX="0.0"
       id="EmptyDiamondSend"
       style="overflow:visible">
      <path
         id="path4461"
         d="M 0,-7.0710768 L -7.0710894,0 L 0,7.0710589 L 7.0710462,0 L 0,-7.0710768 z "
         style="fill-rule:evenodd;fill:#FFFFFF;stroke:#000000;stroke-width:1.0pt;marker-start:none"
         transform="scale(0.2) translate(-6,0)" />
    </marker>
    <inkscape:perspective
       sodipodi:type="inkscape:persp3d"
       inkscape:vp_x="0 : 32 : 1"
       inkscape:vp_y="0 : 1000 : 0"
       inkscape:vp_z="64 : 32 : 1"
       inkscape:persp3d-origin="32 : 21.333333 : 1"
       id="perspective2391" />
    <linearGradient
       inkscape:collect="always"
       xlink:href="#linearGradient5620"
       id="linearGradient5626"
       x1="5.9268509"
       y1="28.766732"
       x2="58.862959"
       y2="28.766732"
       gradientUnits="userSpaceOnUse" />
  </defs>
  <sodipodi:namedview
     id="base"
     pagecolor="#ffffff"
     bordercolor="#666666"
     borderopacity="1.0"
     inkscape:pageopacity="0.0"
     inkscape:pageshadow="2"
     inkscape:zoom="1"
     inkscape:cx="33.875462"
     inkscape:cy="29.887376"
     inkscape:current-layer="layer3"
     showgrid="true"
     inkscape:document-units="px"
     inkscape:grid-bbox="true"
     showguides="true"
     inkscape:guide-bbox="true"
     inkscape:window-width="1280"
     inkscape:window-height="996"
     inkscape:window-x="0"
     inkscape:window-y="0">
    <sodipodi:guide
       orientation="0,1"
       position="17.818182,15.272727"
       id="guide3196" />
  </sodipodi:namedview>
  <metadata
     id="metadata2388">
    <rdf:RDF>
      <cc:Work
         rdf:about="">
        <dc:format>image/svg+xml</dc:format>
        <dc:type
           rdf:resource="http://purl.org/dc/dcmitype/StillImage" />
      </cc:Work>
    </rdf:RDF>
  </metadata>
  <g
     id="layer1"
     inkscape:label="Circle"
     inkscape:groupmode="layer"
     style="display:inline" />
  <g
     inkscape:groupmode="layer"
     id="layer2"
     inkscape:label="Rock"
     style="display:inline">
    <flowRoot
       xml:space="preserve"
       id="flowRoot3166"
       style="font-size:40px;font-style:normal;font-weight:normal;fill:#be0000;fill-opacity:1;stroke:none;stroke-width:1px;stroke-linecap:butt;stroke-linejoin:miter;stroke-opacity:1;font-family:Bitstream Vera Sans"><flowRegion
         id="flowRegion3168"><rect
           id="rect3170"
           width="25.636364"
           height="43.090908"
           x="8.727273"
           y="14"
           style="fill:#be0000;fill-opacity:1" /></flowRegion><flowPara
         id="flowPara3172">RRredferererdfdf</flowPara><flowPara
         id="flowPara3174" /><flowPara
         id="flowPara3176" /><flowPara
         id="flowPara3178" /></flowRoot>    <text
       xml:space="preserve"
       style="font-size:40px;font-style:normal;font-weight:normal;fill:#000000;fill-opacity:1;stroke:none;stroke-width:1px;stroke-linecap:butt;stroke-linejoin:miter;stroke-opacity:1;font-family:Bitstream Vera Sans"
       x="38.363636"
       y="22.636364"
       id="text3180"><tspan
         sodipodi:role="line"
         id="tspan3182"
         x="38.363636"
         y="22.636364" /></text>
  </g>
  <g
     inkscape:groupmode="layer"
     id="layer3"
     inkscape:label="On">
    <g
       id="g5634">
      <path
         d="M 64,32 A 32,32 0 1 1 0,32 A 32,32 0 1 1 64,32 z"
         sodipodi:ry="32"
         sodipodi:rx="32"
         sodipodi:cy="32"
         sodipodi:cx="32"
         id="path2393"
         style="display:inline;fill:#ffffff;fill-opacity:1;fill-rule:evenodd;stroke:#000000;stroke-width:2;stroke-linecap:butt;stroke-linejoin:miter;stroke-miterlimit:4;stroke-dasharray:none;stroke-opacity:1"
         sodipodi:type="arc" />
      <g
         style="display:inline;fill:url(#linearGradient5626);fill-opacity:1;stroke:#000000;stroke-width:0.40000001000000002;stroke-linecap:butt;stroke-linejoin:miter;stroke-miterlimit:4;stroke-dasharray:none;stroke-opacity:1"
         id="g3774">
        <text
           xml:space="preserve"
           style="font-size:274.55044556px;font-style:normal;font-weight:normal;line-height:125%;fill:url(#linearGradient5626);fill-opacity:1;stroke:#000000;stroke-width:0.40000001;stroke-linecap:butt;stroke-linejoin:miter;stroke-miterlimit:4;stroke-dasharray:none;stroke-opacity:1;font-family:Bitstream Vera Sans"
           x="3.0439019"
           y="48.333843"
           id="text3184"
           sodipodi:linespacing="125%"><tspan
             sodipodi:role="line"
             id="tspan3186"
             x="3.0439019"
             y="48.333843"
             style="font-size:49.72498322px;font-style:italic;font-variant:normal;font-weight:bold;font-stretch:condensed;text-align:start;line-height:125%;writing-mode:lr-tb;text-anchor:start;fill:url(#linearGradient5626);fill-opacity:1;stroke:#000000;stroke-width:0.40000001;stroke-linecap:butt;stroke-linejoin:miter;stroke-miterlimit:4;stroke-dasharray:none;stroke-opacity:1;font-family:Nimbus Sans L;-inkscape-font-specification:Nimbus Sans L Bold Italic Condensed">R</tspan></text>
        <text
           xml:space="preserve"
           style="font-size:99.04572296px;font-style:normal;font-weight:normal;line-height:125%;fill:url(#linearGradient5626);fill-opacity:1;stroke:#000000;stroke-width:0.40000001;stroke-linecap:butt;stroke-linejoin:miter;stroke-miterlimit:4;stroke-dasharray:none;stroke-opacity:1;display:inline;font-family:Bitstream Vera Sans"
           x="31.646885"
           y="48.331329"
           id="text3192"
           sodipodi:linespacing="125%"><tspan
             sodipodi:role="line"
             id="tspan3194"
             x="31.646885"
             y="48.331329"
             style="font-size:17.93858719px;font-style:italic;font-variant:normal;font-weight:bold;font-stretch:condensed;text-align:start;line-height:125%;writing-mode:lr-tb;text-anchor:start;fill:url(#linearGradient5626);fill-opacity:1;stroke:#000000;stroke-width:0.40000001;stroke-linecap:butt;stroke-linejoin:miter;stroke-miterlimit:4;stroke-dasharray:none;stroke-opacity:1;font-family:Nimbus Sans L;-inkscape-font-specification:Nimbus Sans L Bold Italic Condensed">ock</tspan></text>
      </g>
      <g
         style="fill:#000000;fill-opacity:1"
         id="g3780">
        <path
           style="font-size:61.65452194px;font-style:normal;font-weight:normal;line-height:125%;fill:#000000;fill-opacity:1;stroke:none;stroke-width:1px;stroke-linecap:butt;stroke-linejoin:miter;stroke-opacity:1;font-family:Bitstream Vera Sans"
           d="M 41.641796,21.768841 C 40.758717,21.768851 40.073835,22.094985 39.587147,22.747246 C 39.100449,23.399523 38.857103,24.317717 38.857107,25.50183 C 38.857103,26.680937 39.100449,27.596622 39.587147,28.248888 C 40.073835,28.90116 40.758717,29.227294 41.641796,29.227292 C 42.529878,29.227294 43.217269,28.90116 43.703971,28.248888 C 44.190655,27.596622 44.434002,26.680937 44.434011,25.50183 C 44.434002,24.317717 44.190655,23.399523 43.703971,22.747246 C 43.217269,22.094985 42.529878,21.768851 41.641796,21.768841 M 41.641796,19.669035 C 43.448072,19.669047 44.862994,20.185844 45.886565,21.21943 C 46.910115,22.253035 47.421895,23.6805 47.421907,25.50183 C 47.421895,27.318153 46.910115,28.74311 45.886565,29.776704 C 44.862994,30.810301 43.448072,31.327098 41.641796,31.327098 C 39.840524,31.327098 38.425602,30.810301 37.397026,29.776704 C 36.373464,28.74311 35.861683,27.318153 35.861684,25.50183 C 35.861683,23.6805 36.373464,22.253035 37.397026,21.21943 C 38.425602,20.185844 39.840524,19.669047 41.641796,19.669035 M 49.604501,19.872242 L 52.840761,19.872242 L 56.927481,27.579057 L 56.927481,19.872242 L 59.674539,19.872242 L 59.674539,31.108839 L 56.438279,31.108839 L 52.351559,23.402024 L 52.351559,31.108839 L 49.604501,31.108839 L 49.604501,19.872242"
           id="path3356" />
        <g
           id="g3208"
           style="fill:#000000;fill-opacity:1">
          <path
             style="font-size:61.65452194px;font-style:normal;font-weight:normal;line-height:125%;opacity:0.09090899;fill:#000000;fill-opacity:1;stroke:none;stroke-width:1px;stroke-linecap:butt;stroke-linejoin:miter;stroke-opacity:1;font-family:Bitstream Vera Sans"
             d="M 41.0625,20.1875 C 35.348241,19.996143 34.705583,29.583941 39.875,30.59375 C 43.283935,31.772903 47.340387,29.35595 46.9375,25.46875 C 47.145283,22.094639 44.348384,19.745953 41.0625,20.1875 z M 50.09375,30.59375 C 53.583138,31.103972 51.097681,25.639348 51.84375,23.40625 C 51.651001,19.257733 54.2738,26.681133 55.370543,28.008627 C 56.476152,32.332942 60.690785,30.652098 59.1875,26.59375 C 59.387447,24.61804 59.486565,17.826124 57.4375,21.375 C 57.159028,23.303412 58.026227,29.720017 56.926239,28.591488 C 55.195965,26.010383 54.219449,22.227486 52.0625,20.375 C 48.279971,19.748721 50.839716,25.464716 50.09375,27.875 C 50.09375,28.78125 50.09375,29.6875 50.09375,30.59375 z M 41.25,21.28125 C 46.399272,20.714388 46.155506,30.735623 40.9375,29.65625 C 37.293251,28.814831 37.424744,21.738821 41.25,21.28125 z"
             id="path3210" />
          <path
             style="font-size:61.65452194px;font-style:normal;font-weight:normal;line-height:125%;opacity:0.09090899;fill:#000000;fill-opacity:1;stroke:none;stroke-width:1px;stroke-linecap:butt;stroke-linejoin:miter;stroke-opacity:1;font-family:Bitstream Vera Sans"
             d="M 41.0625,20.09375 C 35.736439,19.927336 34.523319,28.282798 38.90625,30.375 C 42.048321,31.91302 46.920803,30.366294 46.968635,26.323645 C 47.569795,22.582401 44.887543,19.591914 41.0625,20.09375 z M 50,30.6875 C 53.384787,31.559787 51.421649,27.084149 51.9375,25.0875 C 51.529206,21.135211 52.531681,22.436124 53.813689,25.338113 C 55.281577,26.920974 55.359461,30.816521 57.85625,30.6875 C 60.708251,31.064501 58.66624,26.54749 59.28125,24.6875 C 59.767615,22.743142 59.13068,18.183416 57.34375,21.08125 C 57.329557,23.752044 57.376175,26.423471 57.3125,29.09375 C 55.7164,26.174339 54.190844,23.21695 52.625,20.28125 C 48.983154,19.114404 50.135283,22.741533 50,25.08125 C 50,26.95 50,28.81875 50,30.6875 z M 41.3125,21.375 C 45.289877,21.014414 46.001733,27.304829 43.25,29.1875 C 40.798557,30.780174 38.0273,28.142109 38.4375,25.46875 C 38.371199,23.652616 39.351598,21.454142 41.3125,21.375 z"
             id="path3214" />
          <path
             style="font-size:61.65452194px;font-style:normal;font-weight:normal;line-height:125%;opacity:0.09090899;fill:#000000;fill-opacity:1;stroke:none;stroke-width:1px;stroke-linecap:butt;stroke-linejoin:miter;stroke-opacity:1;font-family:Bitstream Vera Sans"
             d="M 40.40625,20.0625 C 35.077149,20.562804 34.651759,29.447329 39.630094,30.745733 C 42.640117,31.771439 46.711426,30.273078 47.03125,26.75 C 47.69591,23.791582 45.950951,20.183172 42.579082,20.01318 C 41.877519,19.954301 41.129412,19.942438 40.40625,20.0625 z M 49.90625,30.78125 C 52.583759,31.650426 52.080296,29.338629 52.03125,27.48125 C 52.136914,26.039736 51.812945,23.078257 52.210404,22.573507 C 53.707835,25.289493 55.127114,28.048365 56.59375,30.78125 C 58.935601,31.296017 59.945461,30.478795 59.375,28.08125 C 59.375,25.45 59.375,22.81875 59.375,20.1875 C 56.697491,19.318324 57.200954,21.630121 57.25,23.4875 C 57.146527,24.936953 57.463881,27.916116 57.0745,28.424456 C 55.593809,25.688712 54.15256,22.93168 52.6875,20.1875 C 50.345649,19.672733 49.335789,20.489955 49.90625,22.8875 C 49.90625,25.51875 49.90625,28.15 49.90625,30.78125 z M 41.3125,21.46875 C 44.035443,21.109809 45.140999,24.355514 44.6875,26.375 C 44.78245,28.850417 41.676189,30.524327 39.78125,28.90625 C 37.971972,27.063419 38.017183,23.044241 40.375,21.71875 C 40.665786,21.568727 41.024111,21.594481 41.3125,21.46875 z"
             id="path3218" />
          <path
             style="font-size:61.65452194px;font-style:normal;font-weight:normal;line-height:125%;opacity:0.09090899;fill:#000000;fill-opacity:1;stroke:none;stroke-width:1px;stroke-linecap:butt;stroke-linejoin:miter;stroke-opacity:1;font-family:Bitstream Vera Sans"
             d="M 41.03125,19.875 C 38.264942,19.919144 36.006287,22.322432 36.0625,25.075 C 35.764589,27.748576 37.426049,30.641219 40.234225,30.993022 C 43.008463,31.619173 46.260506,30.398941 46.984199,27.469218 C 47.822301,24.693082 46.732607,20.977572 43.781484,20.179775 C 42.909995,19.886378 41.948769,19.803183 41.03125,19.875 z M 49.78125,30.90625 C 51.024351,30.891018 52.731809,31.340142 52.15625,29.50625 C 52.15625,27.2125 52.15625,24.91875 52.15625,22.625 C 53.640008,25.37734 55.091586,28.146998 56.5625,30.90625 C 57.50997,30.607887 59.78565,31.637733 59.5,30.10625 C 59.5,26.758333 59.5,23.410417 59.5,20.0625 C 58.256899,20.077732 56.549441,19.628608 57.125,21.4625 C 57.125,23.766667 57.125,26.070833 57.125,28.375 C 55.638977,25.613443 54.189993,22.831994 52.71875,20.0625 C 51.77128,20.360863 49.4956,19.331017 49.78125,20.8625 C 49.78125,24.210417 49.78125,27.558333 49.78125,30.90625 z M 41.3125,21.59375 C 43.426299,21.274569 44.749927,23.339584 44.625,25.2625 C 44.80542,27.157542 43.852931,29.532512 41.65625,29.40625 C 39.294586,29.57136 38.398294,26.825474 38.702839,24.863089 C 38.748442,23.312311 39.645999,21.679361 41.3125,21.59375 z"
             id="path3222" />
          <path
             style="font-size:61.65452194px;font-style:normal;font-weight:normal;line-height:125%;opacity:0.09090899;fill:#000000;fill-opacity:1;stroke:none;stroke-width:1px;stroke-linecap:butt;stroke-linejoin:miter;stroke-opacity:1;font-family:Bitstream Vera Sans"
             d="M 41,19.78125 C 39.556015,19.891027 38.134672,20.486562 37.216171,21.544676 C 36.361738,22.59302 35.881523,24.162685 35.96875,25.6 C 35.936548,27.177915 36.492348,28.877607 37.65625,29.875 C 38.88843,31.026811 40.884984,31.387815 42.608829,31.171961 C 44.014862,30.979997 45.323363,30.420173 46.1875,29.3125 C 46.707679,28.561547 47.201474,27.500194 47.263252,26.484569 C 47.535802,24.625264 47.063917,22.488318 45.741789,21.210539 C 44.494005,20.021156 42.677292,19.654531 41,19.78125 z M 49.6875,31 C 50.541667,31 51.395833,31 52.25,31 C 52.25,28.34375 52.25,25.6875 52.25,23.03125 C 53.699821,25.668775 55.077931,28.346801 56.5,31 C 57.53125,31 58.5625,31 59.59375,31 C 59.59375,27.322917 59.59375,23.645833 59.59375,19.96875 C 58.739583,19.96875 57.885417,19.96875 57.03125,19.96875 C 57.03125,22.635417 57.03125,25.302083 57.03125,27.96875 C 55.606729,25.306309 54.199178,22.634738 52.78125,19.96875 C 51.75,19.96875 50.71875,19.96875 49.6875,19.96875 C 49.6875,23.645833 49.6875,27.322917 49.6875,31 z M 41.3125,21.6875 C 42.248533,21.602491 43.241456,21.890987 43.78125,22.6875 C 44.641434,23.870806 44.640175,25.535659 44.384877,26.942953 C 44.174363,28.267075 43.04796,29.392892 41.65625,29.3125 C 40.377206,29.399018 39.291021,28.448578 38.994151,27.249541 C 38.614138,25.755021 38.632883,24.006582 39.5,22.6875 C 39.957087,22.119821 40.545421,21.741588 41.3125,21.6875 z"
             id="path3226" />
        </g>
        <g
           id="g3568"
           style="fill:#000000;fill-opacity:1">
          <path
             style="font-size:61.65452194px;font-style:normal;font-weight:normal;line-height:125%;opacity:0.06666703;fill:#000000;fill-opacity:1;stroke:none;stroke-width:1px;stroke-linecap:butt;stroke-linejoin:miter;stroke-opacity:1;font-family:Bitstream Vera Sans"
             d="M 49.34375,11.78125 C 49.462299,12.818346 49.804235,11.442431 49.34375,11.78125 z M 59.71875,39.25 C 60.386205,39.446389 59.304844,38.199593 59.71875,39.25 z"
             id="path3570" />
          <path
             style="font-size:61.65452194px;font-style:normal;font-weight:normal;line-height:125%;opacity:0.06666703;fill:#000000;fill-opacity:1;stroke:none;stroke-width:1px;stroke-linecap:butt;stroke-linejoin:miter;stroke-opacity:1;font-family:Bitstream Vera Sans"
             d="M 49.78125,13.4375 C 49.88561,14.293657 50.161131,13.141181 49.78125,13.4375 z M 59.34375,37.59375 C 59.829051,37.712801 59.02851,36.796611 59.34375,37.59375 z"
             id="path3574" />
          <path
             style="font-size:61.65452194px;font-style:normal;font-weight:normal;line-height:125%;opacity:0.06666703;fill:#000000;fill-opacity:1;stroke:none;stroke-width:1px;stroke-linecap:butt;stroke-linejoin:miter;stroke-opacity:1;font-family:Bitstream Vera Sans"
             d="M 50.1875,15.09375 C 50.29186,15.949907 50.567381,14.797431 50.1875,15.09375 z M 58.9375,35.9375 C 59.422801,36.056551 58.62226,35.140361 58.9375,35.9375 z"
             id="path3578" />
          <path
             style="font-size:61.65452194px;font-style:normal;font-weight:normal;line-height:125%;opacity:0.06666703;fill:#000000;fill-opacity:1;stroke:none;stroke-width:1px;stroke-linecap:butt;stroke-linejoin:miter;stroke-opacity:1;font-family:Bitstream Vera Sans"
             d="M 50.625,16.78125 C 50.715401,17.45614 50.923946,16.527471 50.625,16.78125 z M 58.53125,34.25 C 58.918697,34.331266 58.276881,33.619666 58.53125,34.25 z"
             id="path3582" />
          <path
             style="font-size:61.65452194px;font-style:normal;font-weight:normal;line-height:125%;opacity:0.06666703;fill:#000000;fill-opacity:1;stroke:none;stroke-width:1px;stroke-linecap:butt;stroke-linejoin:miter;stroke-opacity:1;font-family:Bitstream Vera Sans"
             d="M 51.0625,18.4375 C 51.109085,18.832172 51.218169,18.260997 51.0625,18.4375 z M 50.875,29.8125 C 51.463677,23.183118 50.68292,18.004999 50.875,28.15625 L 50.875,29.15625 L 50.875,29.8125 z M 58.21875,27.59375 C 58.570014,34.198141 58.293626,12.800301 58.21875,26.15625 L 58.21875,27.15625 L 58.21875,27.59375 z M 38.65625,21.8125 C 36.372825,23.400624 36.923854,28.012428 38.5625,29.03125 C 37.048454,27.032359 37.405586,23.268175 38.65625,21.8125 z M 44.625,21.84375 C 46.571772,23.602909 45.386202,28.120888 44.96875,28.875 C 46.663605,27.120234 46.573949,23.25352 44.625,21.84375 z M 58.125,32.59375 C 58.414599,32.638427 57.931789,32.12985 58.125,32.59375 z"
             id="path3586" />
          <path
             style="font-size:61.65452194px;font-style:normal;font-weight:normal;line-height:125%;opacity:0.06666703;fill:#000000;fill-opacity:1;stroke:none;stroke-width:1px;stroke-linecap:butt;stroke-linejoin:miter;stroke-opacity:1;font-family:Bitstream Vera Sans"
             d="M 51.5,20.09375 C 51.53509,20.303045 51.56954,19.958204 51.5,20.09375 z M 41.125,20.53125 C 34.956315,20.412008 35.499601,31.335242 41.65625,30.46875 C 48.526677,30.949447 48.082782,19.424362 41.125,20.53125 z M 50.4375,30.25 C 53.072092,30.217719 50.991035,15.512311 50.4375,23.290179 C 50.4375,25.610119 50.4375,27.93006 50.4375,30.25 z M 53.09375,23 C 56.13431,29.308085 58.706916,32.300829 54.174065,24.216691 C 53.337737,21.933167 50.794629,18.974609 53.079411,22.97383 L 53.09375,23 z M 57.78125,27.59375 C 58.193657,35.444018 60.325126,21.202821 57.986607,20.71875 C 57.526406,22.573654 57.905041,25.389835 57.78125,27.59375 z M 41.21875,20.9375 C 47.393121,20.284655 46.201899,32.403428 40.09375,29.75 C 36.941807,28.152843 37.241954,21.305604 41.21875,20.9375 z M 57.75,30.9375 C 57.851562,30.915758 57.666531,30.725438 57.75,30.9375 z"
             id="path3590" />
          <path
             style="font-size:61.65452194px;font-style:normal;font-weight:normal;line-height:125%;opacity:0.06666703;fill:#000000;fill-opacity:1;stroke:none;stroke-width:1px;stroke-linecap:butt;stroke-linejoin:miter;stroke-opacity:1;font-family:Bitstream Vera Sans"
             d="M 41.0625,20.125 C 35.320685,19.934333 34.524583,29.566173 39.90625,30.6875 C 43.014175,31.693286 47.046614,29.766251 46.96875,26.09375 C 47.45273,22.461639 44.733433,19.628877 41.0625,20.125 z M 50.03125,30.65625 C 53.488063,31.488063 51.294315,26.669315 51.90625,24.65625 C 51.345859,19.749413 53.167525,24.092503 54.332855,26.243608 C 55.316258,28.301264 56.918807,32.302161 59.25,30.227679 C 59.25,26.922619 59.25,23.61756 59.25,20.3125 C 55.793187,19.480687 57.986935,24.299435 57.375,26.3125 C 57.940599,31.249909 56.122483,26.9349 54.953659,24.753589 C 53.966964,22.691595 52.371635,18.664895 50.03125,20.741071 C 50.03125,24.046131 50.03125,27.35119 50.03125,30.65625 z M 41.3125,21.34375 C 46.190229,20.865768 46.095005,30.290823 41.21875,29.625 C 37.355974,29.175649 37.441992,21.679107 41.3125,21.34375 z"
             id="path3594" />
        </g>
        <g
           id="g3692"
           style="fill:#000000;fill-opacity:1">
          <path
             style="font-size:61.65452194px;font-style:normal;font-weight:normal;line-height:125%;opacity:0.05;fill:#000000;fill-opacity:1;stroke:none;stroke-width:1px;stroke-linecap:butt;stroke-linejoin:miter;stroke-opacity:1;font-family:Bitstream Vera Sans"
             d="M 50.84375,17.59375 C 50.920551,18.086706 51.061178,17.38267 50.84375,17.59375 z M 58.34375,33.4375 C 58.633349,33.482177 58.150539,32.9736 58.34375,33.4375 z"
             id="path3694" />
          <path
             style="font-size:61.65452194px;font-style:normal;font-weight:normal;line-height:125%;opacity:0.05;fill:#000000;fill-opacity:1;stroke:none;stroke-width:1px;stroke-linecap:butt;stroke-linejoin:miter;stroke-opacity:1;font-family:Bitstream Vera Sans"
             d="M 51,18.21875 C 51.076801,18.711706 51.217428,18.00767 51,18.21875 z M 50.9375,29.75 C 51.135661,22.806206 50.881983,18.410799 50.9375,28.21875 L 50.9375,29.21875 L 50.9375,29.75 z M 58.28125,27.59375 C 58.381654,33.903989 58.316342,12.994238 58.28125,26.21875 L 58.28125,27.21875 L 58.28125,27.59375 z M 45,22.28125 C 45.161751,22.315308 44.730829,21.958645 45,22.28125 z M 38.125,22.40625 C 36.317574,23.685375 37.684278,28.7631 38.03125,28.21875 C 37.147691,26.454157 37.5631,23.647075 38.125,22.40625 z M 45.21875,22.625 C 46.352107,24.206526 45.407869,27.962463 45.3125,28.375 C 46.606063,26.975926 46.015187,22.829025 45.21875,22.625 z M 44.9375,28.84375 C 45.263299,28.693171 44.843274,28.658766 44.9375,28.84375 z M 58.1875,32.8125 C 58.477099,32.857177 57.994289,32.3486 58.1875,32.8125 z"
             id="path3698" />
          <path
             style="font-size:61.65452194px;font-style:normal;font-weight:normal;line-height:125%;opacity:0.05;fill:#000000;fill-opacity:1;stroke:none;stroke-width:1px;stroke-linecap:butt;stroke-linejoin:miter;stroke-opacity:1;font-family:Bitstream Vera Sans"
             d="M 51.21875,18.9375 C 51.389042,18.748575 50.943213,18.781097 51.21875,18.9375 z M 50.78125,29.90625 C 51.958912,23.741958 50.393204,17.413028 50.78125,28.0625 L 50.78125,29.0625 L 50.78125,29.90625 z M 58.125,27.59375 C 58.826742,34.679578 58.28213,12.49969 58.125,26.0625 L 58.125,27.0625 L 58.125,27.59375 z M 39.28125,21.3125 C 35.713127,22.682478 37.09559,29.198136 39.15625,29.53125 C 36.940653,27.528204 37.347533,22.85763 39.28125,21.3125 z M 44.09375,21.40625 C 46.923212,23.251796 44.974537,28.88771 44.5,29.40625 C 47.090418,27.682543 46.711698,22.432284 44.09375,21.40625 z M 58.03125,32.1875 C 58.309884,32.303593 57.87349,31.768366 58.03125,32.1875 z"
             id="path3702" />
          <path
             style="font-size:61.65452194px;font-style:normal;font-weight:normal;line-height:125%;opacity:0.05;fill:#000000;fill-opacity:1;stroke:none;stroke-width:1px;stroke-linecap:butt;stroke-linejoin:miter;stroke-opacity:1;font-family:Bitstream Vera Sans"
             d="M 51.3125,19.4375 C 51.376188,19.746935 51.447312,19.269756 51.3125,19.4375 z M 41.0625,20.71875 C 34.283576,20.842001 36.473639,33.02536 43.28125,30.09375 C 48.542323,28.769704 46.83874,19.398019 41.0625,20.71875 z M 41.3125,20.75 C 48.180992,20.348034 45.812468,33.620349 39.40625,29.53125 C 36.830894,27.32801 37.261091,21.051722 41.3125,20.75 z M 50.625,30.0625 C 52.7737,24.639532 49.945598,16.478739 50.625,27.90625 C 50.625,28.625 50.625,29.34375 50.625,30.0625 z M 53.25,22.9375 C 57.513902,31.049985 57.364265,30.485083 53.228182,22.75752 C 51.957579,20.168097 52.021014,20.883089 53.25,22.9375 z M 57.96875,27.59375 C 59.097341,36.078739 58.594344,12.467268 57.96875,24.90625 C 57.96875,25.802083 57.96875,26.697917 57.96875,27.59375 z M 57.90625,31.59375 C 58.098487,31.604744 57.774617,31.295243 57.90625,31.59375 z"
             id="path3706" />
          <path
             style="font-size:61.65452194px;font-style:normal;font-weight:normal;line-height:125%;opacity:0.05;fill:#000000;fill-opacity:1;stroke:none;stroke-width:1px;stroke-linecap:butt;stroke-linejoin:miter;stroke-opacity:1;font-family:Bitstream Vera Sans"
             d="M 51.53125,20.125 C 51.659621,19.973517 51.291387,20.013296 51.53125,20.125 z M 41.03125,20.5625 C 34.986867,20.49192 35.495144,31.312066 41.65625,30.4375 C 48.613815,31.018551 47.93024,19.177149 41.03125,20.5625 z M 50.46875,30.21875 C 52.967685,30.09817 50.989985,15.531489 50.46875,23.355263 C 50.46875,25.643092 50.46875,27.930921 50.46875,30.21875 z M 53.125,23 C 56.228118,29.384977 58.635906,32.237761 54.122353,24.163707 C 53.257476,21.854805 50.861582,19.065879 53.125,23 z M 57.8125,27.59375 C 58.144955,35.443535 60.362985,20.921118 57.8125,20.75 C 57.8125,23.03125 57.8125,25.3125 57.8125,27.59375 z M 41.3125,20.90625 C 47.271803,20.467434 46.334647,31.955826 40.34375,29.875 C 36.826845,28.425172 37.17037,21.211574 41.3125,20.90625 z M 57.75,30.96875 C 57.931561,31.045085 57.652831,30.716631 57.75,30.96875 z"
             id="path3710" />
          <path
             style="font-size:61.65452194px;font-style:normal;font-weight:normal;line-height:125%;opacity:0.05;fill:#000000;fill-opacity:1;stroke:none;stroke-width:1px;stroke-linecap:butt;stroke-linejoin:miter;stroke-opacity:1;font-family:Bitstream Vera Sans"
             d="M 40.5,20.46875 C 34.659914,21.049628 35.632845,31.451583 41.65625,30.59375 C 47.997141,31.409756 48.469175,20.36247 42.28125,20.40625 C 41.666949,20.363424 41.073713,20.342448 40.5,20.46875 z M 50.3125,30.375 C 53.725268,30.89006 49.756128,17.893987 52.720546,22.614523 C 54.023749,25.010935 57.963706,34.372393 58.96875,28.243421 C 59.918904,23.860881 57.549174,16.605061 57.65625,24.856908 C 58.530687,32.665626 56.137345,28.115621 53.976793,23.546371 C 50.840127,16.459488 49.448218,24.455209 50.3125,28.40954 C 50.3125,29.064693 50.3125,29.719847 50.3125,30.375 z M 41.3125,21.0625 C 47.045373,20.670722 46.152015,31.696134 40.40625,29.71875 C 37.054247,28.427344 37.358941,21.328654 41.3125,21.0625 z"
             id="path3714" />
          <path
             style="font-size:61.65452194px;font-style:normal;font-weight:normal;line-height:125%;opacity:0.05;fill:#000000;fill-opacity:1;stroke:none;stroke-width:1px;stroke-linecap:butt;stroke-linejoin:miter;stroke-opacity:1;font-family:Bitstream Vera Sans"
             d="M 40.46875,20.3125 C 34.502304,20.912521 35.38496,31.531319 41.552632,30.75 C 47.369873,31.601881 48.865475,22.28577 43.84375,20.5625 C 42.713206,20.174158 41.603271,20.140126 40.46875,20.3125 z M 50.15625,30.53125 C 53.559885,30.453456 50.960584,24.423992 51.806367,21.748545 C 53.064265,22.930314 54.994114,27.489286 56.487619,29.981274 C 60.348247,32.725803 58.914095,26.270365 59.125,23.899671 C 59.850513,18.031991 56.236317,21.324054 57.5,25.411185 C 58.190264,31.511764 56.289988,27.99452 54.621556,24.428046 C 54.35867,21.129148 49.126539,18.022704 50.15625,23.200658 C 50.15625,25.644189 50.15625,28.087719 50.15625,30.53125 z M 41.3125,21.21875 C 46.366444,20.789027 46.267591,30.402324 41.1875,29.75 C 37.206432,29.306907 37.308796,21.496031 41.3125,21.21875 z"
             id="path3718" />
          <path
             style="font-size:61.65452194px;font-style:normal;font-weight:normal;line-height:125%;opacity:0.05;fill:#000000;fill-opacity:1;stroke:none;stroke-width:1px;stroke-linecap:butt;stroke-linejoin:miter;stroke-opacity:1;font-family:Bitstream Vera Sans"
             d="M 40.4375,20.15625 C 34.920841,20.707229 34.792124,30.069939 40.260337,30.80438 C 43.290454,31.682672 47.112951,29.533466 47,26.125 C 47.632603,22.728113 44.672889,19.49762 41.230809,20.083247 C 40.97597,20.057264 40.718796,20.114538 40.4375,20.15625 z M 50,30.6875 C 53.361208,31.560769 51.436209,27.147831 51.9375,25.161184 C 51.522996,21.236873 52.512046,22.358747 53.798871,25.310227 C 55.256318,26.919216 55.372397,30.759969 57.840461,30.6875 C 60.69553,31.088622 58.678256,26.6174 59.28125,24.766447 C 59.742807,22.81534 59.148619,18.205089 57.34375,21.070724 C 57.329685,23.73461 57.375945,26.399139 57.3125,29.0625 C 55.693361,26.166283 54.193282,23.205182 52.625,20.28125 C 49.022453,19.13265 50.115189,22.679334 50,25.018093 C 50,26.907895 50,28.797698 50,30.6875 z M 41.3125,21.375 C 44.640763,21.076512 45.422058,25.178912 44.53125,27.5625 C 43.698362,30.633693 38.642248,30.065966 38.59375,26.78125 C 38.117885,24.7245 38.729939,21.595836 41.3125,21.375 z"
             id="path3722" />
          <path
             style="font-size:61.65452194px;font-style:normal;font-weight:normal;line-height:125%;opacity:0.05;fill:#000000;fill-opacity:1;stroke:none;stroke-width:1px;stroke-linecap:butt;stroke-linejoin:miter;stroke-opacity:1;font-family:Bitstream Vera Sans"
             d="M 40.40625,20 C 37.543921,20.260773 35.725887,23.244315 36.125,25.973684 C 36.01154,28.66825 38.341847,31.082715 41,31.0625 C 43.745226,31.45571 46.741527,29.802193 47.077873,26.845261 C 47.694277,24.157544 46.391402,20.697372 43.4375,20.09375 C 42.419257,19.875248 41.410793,19.848297 40.40625,20 z M 49.84375,30.84375 C 51.689313,31.228786 52.560397,30.639344 52.09375,28.712171 C 52.11109,26.662409 52.056839,24.611321 52.125,22.5625 C 53.695256,25.276912 55.09227,28.090118 56.59375,30.84375 C 57.865347,30.693746 60.136106,31.542904 59.4375,29.422697 C 59.4375,26.323465 59.4375,23.224232 59.4375,20.125 C 57.591937,19.739964 56.720853,20.329406 57.1875,22.256579 C 57.17035,24.316762 57.224125,26.378257 57.15625,28.4375 C 55.583518,25.713989 54.189356,22.888849 52.6875,20.125 C 51.415903,20.275004 49.145144,19.425846 49.84375,21.546053 C 49.84375,24.645285 49.84375,27.744518 49.84375,30.84375 z M 41.3125,21.53125 C 43.366737,21.213787 44.738227,23.328834 44.6875,25.0625 C 44.84724,26.865823 44.117004,29.255167 42,29.46875 C 39.975501,29.75461 38.592799,27.818553 38.625,25.96875 C 38.474487,24.097875 39.136801,21.752487 41.3125,21.53125 z"
             id="path3726" />
          <path
             style="font-size:61.65452194px;font-style:normal;font-weight:normal;line-height:125%;opacity:0.05;fill:#000000;fill-opacity:1;stroke:none;stroke-width:1px;stroke-linecap:butt;stroke-linejoin:miter;stroke-opacity:1;font-family:Bitstream Vera Sans"
             d="M 41,19.78125 C 39.556015,19.891027 38.134672,20.486562 37.216171,21.544676 C 36.361738,22.59302 35.881523,24.162685 35.96875,25.6 C 35.936548,27.177915 36.492348,28.877607 37.65625,29.875 C 38.88843,31.026811 40.884984,31.387815 42.608829,31.171961 C 44.014862,30.979997 45.323363,30.420173 46.1875,29.3125 C 46.707679,28.561547 47.201474,27.500194 47.263252,26.484569 C 47.535802,24.625264 47.063917,22.488318 45.741789,21.210539 C 44.494005,20.021156 42.677292,19.654531 41,19.78125 z M 49.6875,31 C 50.541667,31 51.395833,31 52.25,31 C 52.25,28.34375 52.25,25.6875 52.25,23.03125 C 53.699821,25.668775 55.077931,28.346801 56.5,31 C 57.53125,31 58.5625,31 59.59375,31 C 59.59375,27.322917 59.59375,23.645833 59.59375,19.96875 C 58.739583,19.96875 57.885417,19.96875 57.03125,19.96875 C 57.03125,22.635417 57.03125,25.302083 57.03125,27.96875 C 55.606729,25.306309 54.199178,22.634738 52.78125,19.96875 C 51.75,19.96875 50.71875,19.96875 49.6875,19.96875 C 49.6875,23.645833 49.6875,27.322917 49.6875,31 z M 41.3125,21.6875 C 42.248533,21.602491 43.241456,21.890987 43.78125,22.6875 C 44.641434,23.870806 44.640175,25.535659 44.384877,26.942953 C 44.174363,28.267075 43.04796,29.392892 41.65625,29.3125 C 40.377206,29.399018 39.291021,28.448578 38.994151,27.249541 C 38.614138,25.755021 38.632883,24.006582 39.5,22.6875 C 39.957087,22.119821 40.545421,21.741588 41.3125,21.6875 z"
             id="path3730" />
          <path
             style="font-size:61.65452194px;font-style:normal;font-weight:normal;line-height:125%;opacity:0.05;fill:#000000;fill-opacity:1;stroke:none;stroke-width:1px;stroke-linecap:butt;stroke-linejoin:miter;stroke-opacity:1;font-family:Bitstream Vera Sans"
             d="M 41,19.59375 C 39.459862,19.710224 37.913241,20.303971 36.96875,21.5625 C 35.788911,23.037453 35.589165,25.144497 35.906193,26.978803 C 36.099846,28.243113 36.750403,29.451812 37.75,30.21875 C 38.429498,30.83626 39.570854,31.221386 40.572787,31.342168 C 42.63029,31.616179 45.003088,31.16422 46.3125,29.4375 C 47.435367,28.017894 47.705351,25.993993 47.40625,24.21875 C 47.216749,22.60642 46.283038,21.100381 44.875,20.3125 C 43.69132,19.695618 42.326689,19.497653 41,19.59375 z M 49.5,19.875 C 49.5,23.645833 49.5,27.416667 49.5,31.1875 C 50.479167,31.1875 51.458333,31.1875 52.4375,31.1875 C 52.4375,28.729167 52.4375,26.270833 52.4375,23.8125 C 53.753539,26.268214 55.041454,28.744743 56.375,31.1875 C 57.510417,31.1875 58.645833,31.1875 59.78125,31.1875 C 59.78125,27.385417 59.78125,23.583333 59.78125,19.78125 C 58.802083,19.78125 57.822917,19.78125 56.84375,19.78125 C 56.84375,22.260417 56.84375,24.739583 56.84375,27.21875 C 55.531741,24.73933 54.215829,22.26192 52.90625,19.78125 C 51.770833,19.78125 50.635417,19.78125 49.5,19.78125 L 49.5,19.875 z M 41.34375,21.875 C 42.673326,21.680467 43.91771,22.675319 44.15625,23.96875 C 44.512637,25.514901 44.469595,27.424467 43.25,28.59375 C 42.225048,29.456242 40.379328,29.253468 39.6875,28.1875 C 38.785266,26.893497 38.78314,25.094721 39.25,23.625 C 39.537152,22.703311 40.314071,21.971036 41.34375,21.875 z"
             id="path3734" />
          <path
             style="font-size:61.65452194px;font-style:normal;font-weight:normal;line-height:125%;opacity:0.05;fill:#000000;fill-opacity:1;stroke:none;stroke-width:1px;stroke-linecap:butt;stroke-linejoin:miter;stroke-opacity:1;font-family:Bitstream Vera Sans"
             d="M 41,19.4375 C 38.206113,19.526312 35.75232,21.772867 35.679733,24.655943 C 35.165918,27.659346 37.039248,31.183566 40.34375,31.4375 C 43.325017,32.12649 47.025268,30.475179 47.474438,27.172306 C 48.301071,24.104153 46.745378,20.115593 43.29763,19.617313 C 42.522039,19.472954 41.804994,19.343502 41,19.4375 z M 49.34375,19.875 C 49.34375,23.697917 49.34375,27.520833 49.34375,31.34375 C 50.284422,31.038808 52.469274,31.978045 52.59375,30.856908 C 52.59375,28.706689 52.59375,26.556469 52.59375,24.40625 C 53.821812,26.71932 55.058455,29.027962 56.28125,31.34375 C 57.393031,31.153448 59.25256,31.710893 59.9375,31.09375 C 59.9375,27.270833 59.9375,23.447917 59.9375,19.625 C 58.996828,19.929942 56.811976,18.990705 56.6875,20.111842 C 56.6875,22.272478 56.6875,24.433114 56.6875,26.59375 C 55.459344,24.270313 54.223283,21.950945 53,19.625 C 51.930903,19.817498 49.967776,19.2558 49.34375,19.875 z M 42.21875,22.0625 C 44.393102,22.641674 44.382281,25.327424 44.03125,27 C 43.79602,29.088799 40.6411,29.785265 39.59375,27.84375 C 38.823447,26.047791 38.726924,23.373723 40.59375,22.1875 C 41.114138,22.007323 41.729918,21.979125 42.21875,22.0625 z"
             id="path3738" />
          <path
             style="font-size:61.65452194px;font-style:normal;font-weight:normal;line-height:125%;opacity:0.05;fill:#000000;fill-opacity:1;stroke:none;stroke-width:1px;stroke-linecap:butt;stroke-linejoin:miter;stroke-opacity:1;font-family:Bitstream Vera Sans"
             d="M 40.96875,19.28125 C 36.848995,19.319139 34.565572,23.795109 35.6875,27.46875 C 36.808198,33.14263 46.521968,33.150593 47.59375,27.4375 C 48.718401,23.772191 46.417623,19.326822 42.34375,19.28125 C 41.884711,19.241083 41.427808,19.244465 40.96875,19.28125 z M 49.1875,19.875 C 49.1875,23.75 49.1875,27.625 49.1875,31.5 C 51.587581,31.787691 53.700752,31.788472 52.75,28.725329 C 52.443886,25.072867 52.917442,24.544229 54.419396,28.135969 C 55.303372,30.463723 56.406231,32.359627 59.200657,31.5 C 61.257569,31.413272 59.525995,27.538058 60.09375,25.962172 C 59.782911,23.976958 60.687905,20.775912 59.699013,19.46875 C 56.939038,18.821165 55.856797,19.851314 56.53125,22.638157 C 56.958385,26.793436 56.047852,25.565677 54.683532,22.511784 C 53.979225,19.878128 52.350943,18.845314 49.685856,19.46875 C 49.395806,19.488307 48.911877,19.289955 49.1875,19.875 z M 41.65625,22.1875 C 44.521423,22.311121 44.617575,26.517858 43.1875,28.21875 C 41.586645,29.894368 38.874265,27.986901 39.28125,25.90625 C 39.113059,24.341625 39.677071,22.038802 41.65625,22.1875 z"
             id="path3742" />
          <path
             style="font-size:61.65452194px;font-style:normal;font-weight:normal;line-height:125%;opacity:0.05;fill:#000000;fill-opacity:1;stroke:none;stroke-width:1px;stroke-linecap:butt;stroke-linejoin:miter;stroke-opacity:1;font-family:Bitstream Vera Sans"
             d="M 40.96875,19.125 C 34.498553,19.028176 33.200061,29.430262 39,31.4375 C 43.111084,33.192748 48.452685,30.264011 48,25.5 C 48.218213,21.545909 44.856887,18.613522 40.96875,19.125 z M 49.03125,19.875 C 49.03125,23.802083 49.03125,27.729167 49.03125,31.65625 C 53.241799,32.913948 53.394497,30.113795 52.90625,26.672698 C 53.827756,24.595757 54.728054,33.319484 58.095394,31.65625 C 62.215956,32.660583 59.459549,26.787949 60.25,24.462172 C 60.622086,21.085152 60.776893,17.92541 56.384869,19.3125 C 56.292014,22.131272 56.961536,27.87701 54.822112,22.414075 C 54.416648,19.302659 50.694059,18.187964 49.03125,19.875 z M 41.65625,22.34375 C 45.46428,22.473714 44.175823,30.587147 40.40625,28.28125 C 38.807232,26.874174 38.91596,22.276818 41.65625,22.34375 z"
             id="path3746" />
          <path
             style="font-size:61.65452194px;font-style:normal;font-weight:normal;line-height:125%;opacity:0.05;fill:#000000;fill-opacity:1;stroke:none;stroke-width:1px;stroke-linecap:butt;stroke-linejoin:miter;stroke-opacity:1;font-family:Bitstream Vera Sans"
             d="M 40.96875,18.96875 C 33.990243,18.865767 33.004676,30.411413 39.625,31.78125 C 44.393085,33.495753 49.385407,28.994974 48,24.09375 C 47.663445,20.603448 44.296883,18.595211 40.96875,18.96875 z M 48.875,19.875 C 49.415971,23.550038 47.832975,29.349042 49.585526,31.8125 C 55.532074,35.317238 51.518705,23.3373 54.065596,28.162055 C 53.797265,31.905573 61.234134,34.012626 60.40625,29.672698 C 59.442035,26.655004 62.339691,19.775441 58.976974,19.15625 C 53.442042,16.739423 58.196961,29.249113 54.55478,21.579898 C 54.471897,18.632832 49.63895,18.23879 48.875,19.875 z M 41.65625,22.5 C 45.293417,22.598751 43.961301,30.630465 40.3125,28 C 39.129949,26.615971 39.086275,22.419797 41.65625,22.5 z"
             id="path3750" />
          <path
             style="font-size:61.65452194px;font-style:normal;font-weight:normal;line-height:125%;opacity:0.05;fill:#000000;fill-opacity:1;stroke:none;stroke-width:1px;stroke-linecap:butt;stroke-linejoin:miter;stroke-opacity:1;font-family:Bitstream Vera Sans"
             d="M 40.96875,18.8125 C 33.492535,18.664742 32.896811,31.408539 40.25,32.0625 C 46.239789,33.782247 50.48433,26.46239 47.3125,21.625 C 46.027145,19.444803 43.406286,18.634789 40.96875,18.8125 z M 48.71875,19.875 C 50.071455,23.424159 45.76037,32.637108 51.330592,31.96875 C 55.445599,30.15636 51.774063,24.947307 56.4375,31.96875 C 63.447866,34.12824 59.619192,25.448688 60.5625,21.541119 C 61.392574,16.238203 52.869678,19.14853 56.0625,24.0625 C 55.037999,20.414328 51.474527,16.528768 48.71875,19.875 z M 41.375,22.65625 C 45.39353,22.348237 43.442075,31.083123 40.125,27.5 C 39.511191,26.100704 39.327979,22.993094 41.375,22.65625 z"
             id="path3754" />
          <path
             style="font-size:61.65452194px;font-style:normal;font-weight:normal;line-height:125%;opacity:0.05;fill:#000000;fill-opacity:1;stroke:none;stroke-width:1px;stroke-linecap:butt;stroke-linejoin:miter;stroke-opacity:1;font-family:Bitstream Vera Sans"
             d="M 40.9375,18.65625 C 32.861634,18.613621 32.918428,32.45367 41,32.34375 C 48.399832,33.768517 51.319937,22.288095 44.96875,19.34375 C 43.737896,18.737422 42.307223,18.561753 40.9375,18.65625 z M 48.5625,19.875 C 49.897639,23.883611 45.195105,33.929895 52.34375,32.125 C 54.454546,25.005821 52.952481,32.707423 59.6875,32.125 C 61.547743,30.312411 61.437868,20.713959 59.71875,18.84375 C 52.91148,17.778314 57.851872,26.718403 52.84375,18.84375 C 52.024102,19.471242 47.618699,17.634495 48.5625,19.875 z M 41.375,22.8125 C 45.179598,22.522666 43.214673,30.8869 40.21875,27.3125 C 39.719239,26.029653 39.491882,23.173162 41.375,22.8125 z"
             id="path3758" />
          <path
             style="font-size:61.65452194px;font-style:normal;font-weight:normal;line-height:125%;opacity:0.05;fill:#000000;fill-opacity:1;stroke:none;stroke-width:1px;stroke-linecap:butt;stroke-linejoin:miter;stroke-opacity:1;font-family:Bitstream Vera Sans"
             d="M 40.9375,18.5 C 32.644754,18.432569 32.714366,32.641156 41,32.5 C 44.318439,32.894388 47.900141,30.827457 48.40625,27.375 C 45.678249,35.496315 56.152534,31.714399 54.000215,29.008217 C 56.527425,35.94911 63.896179,31.55603 60.875,25.09375 C 64.49791,19.235496 54.959377,15.163269 55.75,21.875 C 56.435542,19.841439 45.471436,15.084476 48.40625,23.625 C 47.880224,20.122806 44.295328,18.09075 40.9375,18.5 z M 41.65625,22.96875 C 44.808151,23.14796 43.020244,30.34762 40.375,27.28125 C 39.871903,26.037322 39.655267,22.958143 41.65625,22.96875 z"
             id="path3762" />
          <path
             style="font-size:61.65452194px;font-style:normal;font-weight:normal;line-height:125%;opacity:0.05;fill:#000000;fill-opacity:1;stroke:none;stroke-width:1px;stroke-linecap:butt;stroke-linejoin:miter;stroke-opacity:1;font-family:Bitstream Vera Sans"
             d="M 40.9375,18.34375 C 32.88135,18.197897 32.3105,31.860787 40.1875,32.53125 C 43.389138,33.180375 47.181174,31.742386 48.25,28.46875 C 46.813211,37.362872 55.975494,28.731098 54.626726,30.546995 C 59.249283,36.42592 63.077452,29.658164 61.03125,24.09375 C 64.553471,17.94313 53.820013,15.661173 55.59375,22.1875 C 54.846595,16.087067 45.89875,18.332839 48.03125,22 C 46.856438,19.278441 43.757842,18.092803 40.9375,18.34375 z M 41.65625,23.125 C 45.288987,23.649185 41.551946,31.071143 40.25,26.25 C 40.126778,25.197977 40.130881,23.014667 41.65625,23.125 z"
             id="path3766" />
          <path
             style="font-size:61.65452194px;font-style:normal;font-weight:normal;line-height:125%;opacity:0.05;fill:#000000;fill-opacity:1;stroke:none;stroke-width:1px;stroke-linecap:butt;stroke-linejoin:miter;stroke-opacity:1;font-family:Bitstream Vera Sans"
             d="M 40.9375,18.1875 C 32.700812,18.046617 32.089767,31.96108 40.15625,32.6875 C 43.20808,33.260535 46.751906,32.125493 48.09375,29.21875 C 47.999395,38.513414 56.011083,26.337424 55.53125,32.59375 C 63.902857,35.246607 60.616999,26.241999 61.1875,21.09375 C 60.427134,12.740174 53.402078,24.810651 53.75,18.375 C 48.449268,15.432114 48.40076,22.596732 47.1875,20.4375 C 45.702375,18.628849 43.194474,18.031538 40.9375,18.1875 z M 41.65625,23.28125 C 44.195552,23.471721 42.791119,29.587552 40.65625,27.125 C 40.247927,26.053113 39.95688,23.295542 41.65625,23.28125 z"
             id="path3770" />
        </g>
      </g>
    </g>
  </g>
</svg>
